<?xml version="1.0" encoding="UTF-8"?>
<svg width="1440px" height="247px" viewBox="0 0 1440 247" version="1.1" xmlns="http://www.w3.org/2000/svg" xmlns:xlink="http://www.w3.org/1999/xlink">
    <!-- Generator: Sketch 61.2 (89653) - https://sketch.com -->
    <title>écosystème</title>
    <desc>Created with Sketch.</desc>
    <g id="Final" stroke="none" stroke-width="1" fill="none" fill-rule="evenodd">
        <g id="Résonne-HD-final" transform="translate(0.000000, -1454.000000)" fill-rule="nonzero" stroke="#181E25">
            <g id="content" transform="translate(-32.000000, 0.000000)">
                <g id="Middle-Section" transform="translate(0.000000, 1455.000000)">
                    <path d="M78.5020576,41 L116,0 L74.090535,0 L49,41 L78.5020576,41 Z M69.6536082,196 C85.5587629,196 98.8587629,191.98212 109.553608,183.94636 C120.248454,175.9106 127.424055,165.683269 131.080412,153.264368 L131.080412,153.264368 L100.641237,144.224138 C95.7051546,157.921456 85.467354,164.770115 69.9278351,164.770115 C60.7869416,164.770115 52.9257732,161.84802 46.3443299,156.003831 C39.7628866,150.159642 36.2893471,142.854406 35.9237113,134.088123 L35.9237113,134.088123 L132.451546,134.088123 L132.725773,132.170498 C132.725773,131.074713 132.771478,129.613665 132.862887,127.787356 C132.954296,125.961047 133,124.317369 133,122.856322 C133,101.123244 127.104124,84.0472542 115.312371,71.6283525 C103.520619,59.2094508 87.2041237,53 66.3628866,53 C48.4467354,53 32.9072165,59.6203704 19.7443299,72.8611111 C6.5814433,86.1018519 0,103.132184 0,123.952107 C0,145.867816 6.76426117,163.354725 20.2927835,176.412835 C33.8213058,189.470945 50.2749141,196 69.6536082,196 Z M97,108 L37,108 C37.3636364,101.388316 40.2727273,95.4020619 45.7272727,90.0412371 C51.1818182,84.6804124 58.2727273,82 67,82 C76.6363636,82 83.9545455,84.5017182 88.9545455,89.5051546 C93.9545455,94.5085911 96.6363636,100.67354 97,108 L97,108 Z M221.503067,196 C238.435583,196 252.423313,191.525543 263.466258,182.576628 C274.509202,173.627714 281.687117,162.943806 285,150.524904 L285,150.524904 L252.699387,139.840996 C250.858896,146.050447 247.361963,151.392401 242.208589,155.866858 C237.055215,160.341315 230.153374,162.578544 221.503067,162.578544 C211.748466,162.578544 203.51227,159.154215 196.794479,152.305556 C190.076687,145.456897 186.717791,136.188378 186.717791,124.5 C186.717791,112.811622 190.030675,103.588761 196.656442,96.8314176 C203.282209,90.0740741 211.472393,86.6954023 221.226994,86.6954023 C236.871166,86.6954023 246.90184,94.2745849 251.319018,109.43295 L251.319018,109.43295 L284.171779,98.4750958 C281.042945,85.8735632 273.957055,75.1439974 262.91411,66.2863985 C251.871166,57.4287995 237.699387,53 220.398773,53 C200.521472,53 183.819018,59.7573436 170.291411,73.2720307 C156.763804,86.7867178 150,103.862708 150,124.5 C150,144.954662 156.855828,161.984994 170.567485,175.590996 C184.279141,189.196999 201.257669,196 221.503067,196 Z M372,196 C392.077519,196 408.763566,189.242656 422.05814,175.727969 C435.352713,162.213282 442,145.137292 442,124.5 C442,103.862708 435.352713,86.7867178 422.05814,73.2720307 C408.763566,59.7573436 392.077519,53 372,53 C351.922481,53 335.191214,59.7573436 321.806202,73.2720307 C308.602067,86.7867178 302,103.862708 302,124.5 C302,145.137292 308.647287,162.213282 321.94186,175.727969 C335.236434,189.242656 351.922481,196 372,196 Z M371.5,163 C361.932,163 353.744,159.608333 346.936,152.825 C340.312,146.041667 337,136.6 337,124.5 C337,112.4 340.358,102.958333 347.074,96.175 C353.79,89.3916667 361.932,86 371.5,86 C381.068,86 389.21,89.3916667 395.926,96.175 C402.642,102.958333 406,112.4 406,124.5 C406,136.6 402.642,146.041667 395.926,152.825 C389.21,159.608333 381.068,163 371.5,163 Z M515.909091,196 C532.454545,196 545.272727,191.616858 554.363636,182.850575 C563.454545,174.084291 568,163.67433 568,151.62069 C568,141.393359 564.590909,132.627075 557.772727,125.321839 C550.954545,118.016603 541.090909,112.994253 528.181818,110.254789 L528.181818,110.254789 L509.090909,106.145594 C500.909091,104.684547 496.818182,100.666667 496.818182,94.091954 C496.818182,90.256705 498.5,87.0606641 501.863636,84.5038314 C505.227273,81.9469987 509.272727,80.6685824 514,80.6685824 C520.909091,80.6685824 526.136364,82.4948914 529.681818,86.1475096 C533.227273,89.8001277 535.363636,94.0006386 536.090909,98.7490421 L536.090909,98.7490421 L566.363636,91.9003831 C565.818182,87.8825032 564.545455,83.7733078 562.545455,79.5727969 C560.545455,75.3722861 557.636364,71.217433 553.818182,67.1082375 C550,62.9990421 544.636364,59.6203704 537.727273,56.9722222 C530.818182,54.3240741 522.818182,53 513.727273,53 C499.363636,53 487.409091,57.2918263 477.863636,65.8754789 C468.318182,74.4591315 463.545455,84.8690932 463.545455,97.105364 C463.545455,106.967433 466.681818,115.45977 472.954545,122.582375 C479.227273,129.704981 488.636364,134.636015 501.181818,137.375479 L501.181818,137.375479 L518.909091,141.484674 C528.545455,143.493614 533.363636,147.876756 533.363636,154.6341 C533.363636,158.469349 531.818182,161.66539 528.727273,164.222222 C525.636364,166.779055 521.272727,168.057471 515.636364,168.057471 C508.181818,168.057471 502.318182,166.094189 498.045455,162.167625 C493.772727,158.24106 491.454545,153.355683 491.090909,147.511494 L491.090909,147.511494 L460,154.360153 C460.545455,158.560664 461.863636,162.898148 463.954545,167.372605 C466.045455,171.847063 469.136364,176.32152 473.227273,180.795977 C477.318182,185.270434 483.090909,188.923052 490.545455,191.753831 C498,194.58461 506.454545,196 515.909091,196 Z M644.209945,245 L729,58 L690.034991,58 L656.832413,136.507289 L620.88582,58 L580,58 L637.349908,175.215743 L605.519337,245 L644.209945,245 Z M794.909091,196 C811.454545,196 824.272727,191.616858 833.363636,182.850575 C842.454545,174.084291 847,163.67433 847,151.62069 C847,141.393359 843.590909,132.627075 836.772727,125.321839 C829.954545,118.016603 820.090909,112.994253 807.181818,110.254789 L807.181818,110.254789 L788.090909,106.145594 C779.909091,104.684547 775.818182,100.666667 775.818182,94.091954 C775.818182,90.256705 777.5,87.0606641 780.863636,84.5038314 C784.227273,81.9469987 788.272727,80.6685824 793,80.6685824 C799.909091,80.6685824 805.136364,82.4948914 808.681818,86.1475096 C812.227273,89.8001277 814.363636,94.0006386 815.090909,98.7490421 L815.090909,98.7490421 L845.363636,91.9003831 C844.818182,87.8825032 843.545455,83.7733078 841.545455,79.5727969 C839.545455,75.3722861 836.636364,71.217433 832.818182,67.1082375 C829,62.9990421 823.636364,59.6203704 816.727273,56.9722222 C809.818182,54.3240741 801.818182,53 792.727273,53 C778.363636,53 766.409091,57.2918263 756.863636,65.8754789 C747.318182,74.4591315 742.545455,84.8690932 742.545455,97.105364 C742.545455,106.967433 745.681818,115.45977 751.954545,122.582375 C758.227273,129.704981 767.636364,134.636015 780.181818,137.375479 L780.181818,137.375479 L797.909091,141.484674 C807.545455,143.493614 812.363636,147.876756 812.363636,154.6341 C812.363636,158.469349 810.818182,161.66539 807.727273,164.222222 C804.636364,166.779055 800.272727,168.057471 794.636364,168.057471 C787.181818,168.057471 781.318182,166.094189 777.045455,162.167625 C772.772727,158.24106 770.454545,153.355683 770.090909,147.511494 L770.090909,147.511494 L739,154.360153 C739.545455,158.560664 740.863636,162.898148 742.954545,167.372605 C745.045455,171.847063 748.136364,176.32152 752.227273,180.795977 C756.318182,185.270434 762.090909,188.923052 769.545455,191.753831 C777,194.58461 785.454545,196 794.909091,196 Z M928.375,194 C936.808333,194 943.683333,192.910217 949,190.73065 L949,190.73065 L949,160.76161 C946.433333,161.488132 942.675,161.851393 937.725,161.851393 C932.225,161.851393 928.191667,160.670795 925.625,158.309598 C923.058333,155.9484 921.775,151.952528 921.775,146.321981 L921.775,146.321981 L921.775,90.1981424 L949,90.1981424 L949,58.0495356 L921.775,58.0495356 L921.775,18 L888.775,18 L888.775,36.7987616 C888.775,43.1558308 886.9875,48.2868937 883.4125,52.1919505 C879.8375,56.0970072 874.658333,58.0495356 867.875,58.0495356 L867.875,58.0495356 L861,58.0495356 L861,90.1981424 L885.475,90.1981424 L885.475,152.588235 C885.475,165.484004 889.325,175.609907 897.025,182.965944 C904.725,190.321981 915.175,194 928.375,194 Z M1055,41 L1030.28689,0 L988,0 L1025.34426,41 L1055,41 Z M1037.65361,196 C1053.55876,196 1066.85876,191.98212 1077.55361,183.94636 C1088.24845,175.9106 1095.42405,165.683269 1099.08041,153.264368 L1099.08041,153.264368 L1068.64124,144.224138 C1063.70515,157.921456 1053.46735,164.770115 1037.92784,164.770115 C1028.78694,164.770115 1020.92577,161.84802 1014.34433,156.003831 C1007.76289,150.159642 1004.28935,142.854406 1003.92371,134.088123 L1003.92371,134.088123 L1100.45155,134.088123 L1100.72577,132.170498 C1100.72577,131.074713 1100.77148,129.613665 1100.86289,127.787356 C1100.9543,125.961047 1101,124.317369 1101,122.856322 C1101,101.123244 1095.10412,84.0472542 1083.31237,71.6283525 C1071.52062,59.2094508 1055.20412,53 1034.36289,53 C1016.44674,53 1000.90722,59.6203704 987.74433,72.8611111 C974.581443,86.1018519 968,103.132184 968,123.952107 C968,145.867816 974.764261,163.354725 988.292784,176.412835 C1001.82131,189.470945 1018.27491,196 1037.65361,196 Z M1065,108 L1005,108 C1005.36364,101.388316 1008.27273,95.4020619 1013.72727,90.0412371 C1019.18182,84.6804124 1026.27273,82 1035,82 C1044.63636,82 1051.95455,84.5017182 1056.95455,89.5051546 C1061.95455,94.5085911 1064.63636,100.67354 1065,108 L1065,108 Z M1166.48202,193 L1166.48202,114.454545 C1166.48202,106.818182 1168.76787,100.5 1173.33955,95.5 C1177.91123,90.5 1184.03728,88 1191.71771,88 C1199.581,88 1205.52419,90.3181818 1209.54727,94.9545455 C1213.57035,99.5909091 1215.58189,105.727273 1215.58189,113.363636 L1215.58189,113.363636 L1215.58189,193 L1251.78961,193 L1251.78961,114.454545 C1251.78961,107 1254.07545,100.727273 1258.64714,95.6363636 C1263.21882,90.5454545 1269.25344,88 1276.751,88 C1284.79716,88 1290.78606,90.3181818 1294.71771,94.9545455 C1298.64936,99.5909091 1300.61518,105.727273 1300.61518,113.363636 L1300.61518,113.363636 L1300.61518,193 L1336,193 L1336,106 C1336,89.0909091 1331.29117,76.3636364 1321.8735,67.8181818 C1312.45584,59.2727273 1300.88948,55 1287.17443,55 C1268.3391,55 1254.07545,62.4545455 1244.38349,77.3636364 C1237.25166,62.4545455 1223.90235,55 1204.33555,55 C1196.47226,55 1188.79183,56.8181818 1181.29427,60.4545455 C1173.79672,64.0909091 1168.3107,69 1164.83622,75.1818182 L1164.83622,75.1818182 L1164.83622,58.8181818 L1130,58.8181818 L1130,193 L1166.48202,193 Z M1431.65361,196 C1447.55876,196 1460.85876,191.98212 1471.55361,183.94636 C1482.24845,175.9106 1489.42405,165.683269 1493.08041,153.264368 L1493.08041,153.264368 L1462.64124,144.224138 C1457.70515,157.921456 1447.46735,164.770115 1431.92784,164.770115 C1422.78694,164.770115 1414.92577,161.84802 1408.34433,156.003831 C1401.76289,150.159642 1398.28935,142.854406 1397.92371,134.088123 L1397.92371,134.088123 L1494.45155,134.088123 L1494.72577,132.170498 C1494.72577,131.074713 1494.77148,129.613665 1494.86289,127.787356 C1494.9543,125.961047 1495,124.317369 1495,122.856322 C1495,101.123244 1489.10412,84.0472542 1477.31237,71.6283525 C1465.52062,59.2094508 1449.20412,53 1428.36289,53 C1410.44674,53 1394.90722,59.6203704 1381.74433,72.8611111 C1368.58144,86.1018519 1362,103.132184 1362,123.952107 C1362,145.867816 1368.76426,163.354725 1382.29278,176.412835 C1395.82131,189.470945 1412.27491,196 1431.65361,196 Z M1458,108 L1398,108 C1398.36364,101.388316 1401.27273,95.4020619 1406.72727,90.0412371 C1412.18182,84.6804124 1419.27273,82 1428,82 C1437.63636,82 1444.95455,84.5017182 1449.95455,89.5051546 C1454.95455,94.5085911 1457.63636,100.67354 1458,108 L1458,108 Z M1546.86339,193 C1553.78506,193 1559.70492,190.621795 1564.62295,185.865385 C1569.54098,181.108974 1572,175.320513 1572,168.5 C1572,161.679487 1569.54098,155.891026 1564.62295,151.134615 C1559.70492,146.378205 1553.78506,144 1546.86339,144 C1540.12386,144 1534.29508,146.378205 1529.37705,151.134615 C1524.45902,155.891026 1522,161.679487 1522,168.5 C1522,175.320513 1524.45902,181.153846 1529.37705,186 C1534.29508,190.666667 1540.12386,193 1546.86339,193 Z" id="écosystème."></path>
                </g>
            </g>
        </g>
    </g>
</svg>