<?xml version="1.0" encoding="UTF-8"?>
<svg width="133px" height="40px" viewBox="0 0 133 40" version="1.1" xmlns="http://www.w3.org/2000/svg" xmlns:xlink="http://www.w3.org/1999/xlink">
    <!-- Generator: Sketch 61.2 (89653) - https://sketch.com -->
    <title>logo spotify</title>
    <desc>Created with Sketch.</desc>
    <g id="Final" stroke="none" stroke-width="1" fill="none" fill-rule="evenodd">
        <g id="Résonne-HD-final" transform="translate(-634.000000, -4863.000000)" fill="#FFFFFF">
            <g id="content" transform="translate(-32.000000, 0.000000)">
                <g id="playlist" transform="translate(142.000000, 4236.000000)">
                    <g id="spotify" transform="translate(400.000000, 397.000000)">
                        <path d="M254.129373,246.533089 L253.567953,246.533089 L253.567953,247.249065 L254.129373,247.249065 C254.409846,247.249065 254.577183,247.111787 254.577183,246.890722 C254.577183,246.657822 254.409846,246.533089 254.129373,246.533089 M254.493396,247.554391 L255.103337,248.408355 L254.589018,248.408355 L254.039905,247.62516 L253.567953,247.62516 L253.567953,248.408355 L253.13742,248.408355 L253.13742,246.144686 L254.146888,246.144686 C254.672805,246.144686 255.018604,246.413799 255.018604,246.866817 C255.018604,247.237941 254.804402,247.464686 254.493396,247.554391 M254.01529,245.39155 C252.910911,245.39155 252.074698,246.26942 252.074698,247.344923 C252.074698,248.419479 252.904757,249.285751 254.003929,249.285751 C255.108308,249.285751 255.944994,248.408355 255.944994,247.332379 C255.944994,246.257822 255.114462,245.39155 254.01529,245.39155 M143.820828,230 C154.767811,230 163.641893,238.873846 163.641893,249.820592 C163.641893,260.768047 154.767811,269.641893 143.820828,269.641893 C132.87432,269.641893 124,260.768047 124,249.820592 C124,238.873846 132.87432,230 143.820828,230 Z M236.350769,239.93368 C237.514083,239.93368 238.290888,240.119243 238.897988,240.299834 C238.992663,240.32871 239.056331,240.416284 239.056331,240.514982 L239.056331,240.514982 L239.056331,243.097231 C239.056331,243.169183 239.022722,243.237112 238.963787,243.279479 C238.906272,243.321609 238.832426,243.33297 238.761657,243.310485 C238.186746,243.119006 237.673609,242.991905 237.03503,242.991905 C235.963787,242.991905 235.486154,243.547408 235.486154,244.793089 L235.486154,244.793089 L235.486154,245.216521 L240.72071,245.216521 C240.813964,245.216521 240.897278,245.274036 240.930178,245.360899 L240.930178,245.360899 L244.509586,254.701491 L247.777515,245.367053 C247.808757,245.277349 247.894438,245.216521 247.989822,245.216521 L247.989822,245.216521 L251.179882,245.216521 C251.253964,245.216521 251.32213,245.253207 251.36426,245.314036 C251.406627,245.375337 251.414438,245.453207 251.387929,245.52232 L251.387929,245.52232 L246.071716,259.259834 C244.968757,262.095337 243.718107,263.149302 241.455621,263.149302 C240.245917,263.149302 239.267219,262.898888 238.183195,262.311432 C238.07929,262.255811 238.036923,262.129183 238.086391,262.021491 L238.086391,262.021491 L239.125207,259.743148 C239.149822,259.686107 239.19929,259.642556 239.257751,259.621964 C239.316923,259.60374 239.381538,259.60871 239.436213,259.638769 C240.017515,259.956876 240.586036,260.117822 241.125917,260.117822 C241.793609,260.117822 242.283077,259.898414 242.780592,258.794272 L242.780592,258.794272 L238.39787,248.28587 L235.536805,248.28587 L235.536805,258.796876 C235.536805,258.920663 235.435976,259.021491 235.312426,259.021491 L235.312426,259.021491 L232.247811,259.021491 C232.124497,259.021491 232.024615,258.920663 232.024615,258.796876 L232.024615,258.796876 L232.024615,248.28587 L230.552426,248.28587 C230.428876,248.28587 230.327574,248.185041 230.327574,248.061254 L230.327574,248.061254 L230.327574,245.414154 C230.327574,245.290604 230.428876,245.189775 230.552426,245.189775 L230.552426,245.189775 L232.024615,245.189775 L232.024615,244.541254 C232.024615,241.527763 233.520473,239.93368 236.350769,239.93368 Z M192.804237,244.92284 C196.011101,244.92284 199.257491,247.392189 199.257491,252.112189 C199.257491,256.831243 196.011101,259.299882 192.804237,259.299882 C191.078793,259.299882 189.662935,258.659882 188.495361,257.349586 L188.495361,257.349586 L188.495361,262.848284 C188.495361,262.972071 188.395006,263.072899 188.271219,263.072899 L188.271219,263.072899 L185.207077,263.072899 C185.08329,263.072899 184.983172,262.972071 184.983172,262.848284 L184.983172,262.848284 L184.983172,245.427692 C184.983172,245.304142 185.08329,245.203314 185.207077,245.203314 L185.207077,245.203314 L188.271219,245.203314 C188.395006,245.203314 188.495361,245.304142 188.495361,245.427692 L188.495361,245.427692 L188.495361,246.995503 C189.662698,245.602604 191.07832,244.92284 192.804237,244.92284 Z M207.578888,244.92303 C211.695101,244.92303 214.918296,248.080899 214.918296,252.112142 C214.918296,256.157112 211.672852,259.326817 207.528237,259.326817 C203.426698,259.326817 200.213444,256.180071 200.213444,252.163503 C200.213444,248.103148 203.448947,244.92303 207.578888,244.92303 Z M176.607503,240.593444 C179.120639,240.593444 181.270698,241.338296 183.180047,242.870367 C183.272592,242.94445 183.29129,243.078178 183.222651,243.175219 L183.222651,243.175219 L181.551645,245.530722 C181.516379,245.580426 181.463598,245.613089 181.403716,245.622083 C181.343834,245.63155 181.283006,245.617112 181.234485,245.580899 C179.629988,244.384686 178.100047,243.803621 176.556852,243.803621 C174.964899,243.803621 173.89413,244.568592 173.89413,245.705633 C173.89413,246.909183 174.503834,247.481964 177.925846,248.298059 C182.095314,249.312024 183.795669,250.885988 183.795669,253.731905 C183.795669,257.099243 181.222888,259.274864 177.240876,259.274864 C174.426201,259.274864 171.818154,258.275101 169.697207,256.381609 C169.606556,256.301609 169.596615,256.163385 169.675195,256.070604 L169.675195,256.070604 L171.548805,253.841018 C171.587148,253.794864 171.642296,253.766935 171.702651,253.761728 C171.759929,253.758651 171.821704,253.776639 171.866911,253.815456 C173.68987,255.393917 175.319219,256.067053 177.316615,256.067053 C179.115195,256.067053 180.232828,255.288828 180.232828,254.036757 C180.232828,252.906817 179.680166,252.274864 176.405373,251.520781 C172.557799,250.59084 170.33129,249.386107 170.33129,245.98374 C170.33129,242.810722 172.912355,240.593444 176.607503,240.593444 Z M220.142083,241.53103 C220.265633,241.53103 220.365751,241.631858 220.365751,241.755645 L220.365751,241.755645 L220.365751,245.203219 L223.737586,245.203219 C223.861373,245.203219 223.961254,245.304047 223.961254,245.427834 L223.961254,245.427834 L223.961254,248.061207 C223.961254,248.184994 223.861373,248.285822 223.737586,248.285822 L223.737586,248.285822 L220.365751,248.285822 L220.365751,254.620024 C220.365751,255.620734 220.804331,256.066888 221.787527,256.066888 C222.42516,256.066888 222.995811,255.929846 223.586107,255.632805 C223.654509,255.598959 223.737586,255.601089 223.804568,255.642982 C223.870604,255.683456 223.91084,255.756592 223.91084,255.833988 L223.91084,255.833988 L223.91084,258.341917 C223.91084,258.421917 223.867527,258.497183 223.797704,258.536 C222.938059,259.023574 222.026343,259.250556 220.927172,259.250556 C218.22374,259.250556 216.853325,257.854107 216.853325,255.10026 L216.853325,255.10026 L216.853325,248.285822 L215.379716,248.285822 C215.256402,248.285822 215.156521,248.184994 215.156521,248.061207 L215.156521,248.061207 L215.156521,245.427834 C215.156521,245.304047 215.256402,245.203219 215.379716,245.203219 L215.379716,245.203219 L216.853325,245.203219 L216.853325,241.755645 C216.853325,241.631858 216.954154,241.53103 217.077941,241.53103 L217.077941,241.53103 Z M152.501302,256.889941 C147.276686,253.697041 140.800237,252.954556 133.249941,254.68071 C132.583669,254.832189 132.168521,255.494911 132.320947,256.159763 C132.472663,256.824142 133.135148,257.240947 133.8,257.088521 C140.699408,255.512426 146.55787,256.15503 151.212308,259 C151.79432,259.35574 152.554793,259.172544 152.911006,258.588639 C153.267219,258.006391 153.083787,257.24568 152.501302,256.889941 Z M228.675195,245.203219 C228.798746,245.203219 228.899574,245.304047 228.899574,245.427834 L228.899574,245.427834 L228.899574,258.797065 C228.899574,258.920615 228.798746,259.021444 228.675195,259.021444 L228.675195,259.021444 L225.611053,259.021444 C225.48703,259.021444 225.386201,258.920615 225.386201,258.797065 L225.386201,258.797065 L225.386201,245.427834 C225.386201,245.304047 225.48703,245.203219 225.611053,245.203219 L225.611053,245.203219 Z M207.528237,248.056757 C205.324923,248.056757 203.726107,249.76232 203.726107,252.112142 C203.726107,254.45226 205.382201,256.217467 207.578888,256.217467 C209.796639,256.217467 211.40658,254.513089 211.40658,252.163503 C211.40658,249.821964 209.739124,248.056757 207.528237,248.056757 Z M192.094888,248.032426 C189.999503,248.032426 188.418911,249.785562 188.418911,252.112189 C188.418911,254.439053 189.999503,256.192189 192.094888,256.192189 C194.214414,256.192189 195.694651,254.515266 195.694651,252.112189 C195.694651,249.747692 194.180331,248.032426 192.094888,248.032426 Z M154.827929,251.066982 C148.710059,247.307219 139.760947,246.249231 132.561893,248.433846 C131.746036,248.68213 131.285207,249.543905 131.531598,250.361183 C131.779645,251.176805 132.64284,251.637396 133.459882,251.390533 C139.761657,249.477633 147.88426,250.426036 153.210651,253.700355 C153.937278,254.146982 154.888284,253.918817 155.336331,253.191479 C155.782959,252.465799 155.55432,251.51432 154.827929,251.066982 Z M254.01529,245.177112 C255.228071,245.177112 256.17174,246.15084 256.17174,247.332379 C256.17174,248.515337 255.216473,249.501609 254.003929,249.501609 C252.791385,249.501609 251.847479,248.527645 251.847479,247.344923 C251.847479,246.161964 252.803456,245.177112 254.01529,245.177112 Z M157.43787,244.382959 C150.082604,240.017041 138.443787,239.606391 131.442367,241.731598 C130.462012,242.029349 129.909586,243.064379 130.206627,244.044497 C130.503195,245.023669 131.538935,245.576805 132.51858,245.279527 C138.617751,243.428402 149.15645,243.777278 155.545562,247.571598 C156.424379,248.094675 157.563077,247.80426 158.08568,246.923314 C158.607811,246.043787 158.319053,244.906036 157.43787,244.382959 Z M227.158675,239.115834 C228.372166,239.115834 229.356071,240.098556 229.356071,241.312521 C229.356071,242.527195 228.372166,243.511101 227.158675,243.511101 C225.94471,243.511101 224.959621,242.527195 224.959621,241.312521 C224.959621,240.098556 225.94471,239.115834 227.158675,239.115834 Z" id="logo-spotify"></path>
                    </g>
                </g>
            </g>
        </g>
    </g>
</svg>