<?xml version="1.0" encoding="UTF-8"?>
<svg width="129px" height="24px" viewBox="0 0 129 24" version="1.1" xmlns="http://www.w3.org/2000/svg" xmlns:xlink="http://www.w3.org/1999/xlink">
    <!-- Generator: Sketch 61.2 (89653) - https://sketch.com -->
    <title>logo-resonne</title>
    <desc>Created with Sketch.</desc>
    <g id="Final" stroke="none" stroke-width="1" fill="none" fill-rule="evenodd">
        <g id="Résonne-HD-final-scroll" transform="translate(-48.000000, -44.000000)" fill="#000000">
            <g id="menu">
                <path d="M69.2430902,50.50285 C74.335569,50.50285 77.3851899,53.7544907 77.3851899,59.0507597 C77.3851899,59.6868471 77.3174685,60.3574575 77.3174685,60.4247775 L65.5240192,60.4247775 C65.624523,62.6036141 67.4676673,64.1787288 69.6787503,64.1787288 C71.7561159,64.1787288 72.8948711,63.1395846 73.431035,61.6650184 L77.150106,62.771051 C76.3128621,65.6200665 73.6989013,68 69.6451053,68 C65.1220041,68 61.1350668,64.7487908 61.1350668,59.1845365 C61.1350668,53.921496 65.0215003,50.50285 69.2430902,50.50285 Z M168.5579,50.5031952 C173.650379,50.5031952 176.7,53.7544044 176.7,59.0506734 C176.7,59.6867608 176.63271,60.3573712 176.63271,60.4246912 L164.838829,60.4246912 C164.939333,62.6035278 166.782477,64.179074 168.99356,64.179074 C171.070926,64.179074 172.210113,63.1394983 172.745845,61.6649321 L176.464916,62.7709647 C175.627672,65.6199802 173.013711,67.9999137 168.959915,67.9999137 C164.436814,67.9999137 160.449877,64.7487045 160.449877,59.1844502 C160.449877,53.9218412 164.33631,50.5031952 168.5579,50.5031952 Z M106.368926,50.5030226 C111.294042,50.5030226 115.013113,54.1564254 115.013113,59.2515976 C115.013113,64.3131098 111.294042,67.9997411 106.368926,67.9997411 C101.443809,67.9997411 97.7247383,64.3131098 97.7247383,59.2515976 C97.7247383,54.1564254 101.443809,50.5030226 106.368926,50.5030226 Z M128.952382,50.5696521 C133.039823,50.5696521 134.916181,53.4859876 134.916181,57.106162 L134.916181,67.4971716 L130.459939,67.4971716 L130.459939,57.8773209 C130.459939,56.0337894 129.555405,54.5920201 127.411181,54.5920201 C125.467964,54.5920201 124.328777,56.1006779 124.328777,58.0115293 L124.328777,67.4971716 L119.872535,67.4971716 L119.872535,51.0059372 L124.194629,51.0059372 L124.194629,53.0505655 C125.200098,51.3408109 127.176959,50.5696521 128.952382,50.5696521 Z M106.368926,54.5586191 C104.191488,54.5586191 102.180981,56.1341652 102.180981,59.2515976 C102.180981,62.33537 104.191488,63.9441446 106.368926,63.9441446 C108.546363,63.9441446 110.55687,62.3685984 110.55687,59.2515976 C110.55687,56.1341652 108.546363,54.5586191 106.368926,54.5586191 Z M87.4377672,50.5031952 C92.1282309,50.5031952 93.7035089,53.4859876 93.9036538,55.262199 L93.9036538,55.262199 L90.1850141,56.1006779 C90.0508653,55.1284222 89.3473389,53.8881812 87.4709809,53.8881812 C86.2985806,53.8881812 85.3604016,54.5920201 85.3604016,55.5306158 C85.3604016,56.3350031 85.9634243,56.8381768 86.8683896,57.0056136 L86.8683896,57.0056136 L89.2131901,57.5087872 C92.4633872,58.1789661 94.105524,60.1567059 94.105524,62.5702994 C94.105524,62.7131385 94.0964657,62.8559777 94.084388,62.9988169 L94.084388,62.9988169 L89.8438189,62.9988169 C89.8446816,62.9785346 89.8502891,62.9591153 89.8502891,62.938833 C89.8502891,62.2013342 89.3473389,61.5976122 88.0744349,61.3296269 L88.0744349,61.3296269 L85.8965655,60.8273164 C82.7136585,60.1230459 81.2729606,58.2121946 81.2729606,55.899581 C81.2729606,52.9500171 83.8860587,50.5031952 87.4377672,50.5031952 Z M149.861308,50.5697815 C153.948318,50.5697815 155.824676,53.4861171 155.824676,57.1062915 L155.824676,57.1062915 L155.824676,60.4429452 L151.368434,60.4429452 L151.368434,57.8774503 C151.368434,56.0334874 150.4639,54.5921496 148.319675,54.5921496 C146.37689,54.5921496 145.237272,56.1003758 145.237272,58.0112272 L145.237272,58.0112272 L145.237272,60.4429452 L140.78103,60.4429452 L140.78103,51.0056352 L145.103123,51.0056352 L145.103123,53.050695 C146.108592,51.3409404 148.085885,50.5697815 149.861308,50.5697815 Z M57.0129887,50.8714268 C57.3813587,50.8714268 57.7169464,50.9050868 58.0516714,50.9387467 L58.0516714,50.9387467 L58.0516714,55.4301969 C57.5495839,55.33008 57.1134924,55.2959885 56.7114773,55.2959885 C54.4331042,55.2959885 52.4566738,56.4024526 52.4566738,59.955307 L52.4566738,59.955307 L52.4566738,60.4252522 L48,60.4252522 L48,51.0056352 L52.322525,51.0056352 L52.322525,53.4528886 C53.3279941,51.2736204 55.6059358,50.8714268 57.0129887,50.8714268 Z M168.624759,54.1233696 C166.313172,54.1233696 165.040268,55.8663526 164.939333,57.3745788 L172.310616,57.3745788 C172.243758,55.7321442 171.170998,54.1233696 168.624759,54.1233696 Z M69.3103803,54.1234559 C66.9979308,54.1234559 65.7254581,55.8664389 65.624523,57.3746651 L72.9953749,57.3746651 C72.9285161,55.7322305 71.8566197,54.1234559 69.3103803,54.1234559 Z M75.3410381,44 L70.7842918,49.0282837 L67.1993697,49.0282837 L70.2481279,44 L75.3410381,44 Z" id="logo-resonne"></path>
            </g>
        </g>
    </g>
</svg>