<?xml version="1.0" encoding="UTF-8"?>
<svg width="127px" height="30px" viewBox="0 0 127 30" version="1.1" xmlns="http://www.w3.org/2000/svg" xmlns:xlink="http://www.w3.org/1999/xlink">
    <!-- Generator: Sketch 61.2 (89653) - https://sketch.com -->
    <title>logo apple music</title>
    <desc>Created with Sketch.</desc>
    <g id="Final" stroke="none" stroke-width="1" fill="none" fill-rule="evenodd">
        <g id="Résonne-HD-final" transform="translate(-1037.000000, -4758.000000)" fill="#FFFFFF">
            <g id="content" transform="translate(-32.000000, 0.000000)">
                <g id="playlist" transform="translate(142.000000, 4236.000000)">
                    <g id="apple-music" transform="translate(800.000000, 287.000000)">
                        <path d="M215.869575,251.81861 L212.606573,251.080973 C210.683509,250.678245 209.674292,249.827878 209.674292,248.559039 C209.674292,246.8741 211.045415,245.814068 213.253835,245.814068 C215.744584,245.814068 216.989958,247.242919 217.099963,248.784448 L221.356842,248.784448 C221.309561,244.914906 218.078046,242.217974 213.268872,242.217974 C208.713164,242.217974 205.11823,244.610627 205.11823,248.912921 C205.11823,252.637489 207.641274,254.370114 210.668119,255.030142 L213.899633,255.783977 C216.075355,256.281622 217.178783,257.004676 217.178783,258.496602 C217.178783,260.199657 215.822647,261.355816 213.28502,261.355816 C210.557408,261.355816 209.122401,259.910415 208.997006,258.288552 L204.613621,258.288552 C204.677807,261.387355 206.727023,264.999596 213.06501,264.999596 C218.393427,264.999596 221.689127,262.350804 221.689127,258.046643 C221.687614,254.065179 219.023027,252.507855 215.869626,251.81861 L215.869575,251.81861 Z M196.187513,256.50587 C196.187513,259.444661 194.469067,261.065414 191.946831,261.065414 C189.408397,261.065414 187.690355,259.460102 187.690355,256.50587 L187.690355,242.667581 L183.14923,242.667581 L183.14923,257.148187 C183.14923,261.821217 186.459564,264.999596 191.946024,264.999596 C197.417143,264.999596 200.743221,261.821217 200.743221,257.148187 L200.743221,242.667581 L196.187513,242.667581 L196.187513,256.50587 Z M244.622687,246.150996 C247.334152,246.150996 248.767998,248.23831 248.767998,250.485938 L253.15219,250.485938 L253.15219,250.020184 C253.15219,245.782177 249.919919,242.250673 244.590745,242.250673 C238.883116,242.250673 235.478167,246.007182 235.478167,252.413241 L235.478167,254.885874 C235.478167,261.290015 238.851578,265 244.574598,265 C250.045667,265 253.15219,261.418489 253.15219,257.437782 L253.15219,256.956234 L248.768401,256.956234 C248.768401,259.220817 247.36569,261.09887 244.654982,261.09887 C241.87923,261.09887 240.1131,259.123881 240.1131,254.900912 L240.1131,252.430145 C240.1131,248.221759 241.895428,246.150996 244.622687,246.150996 L244.622687,246.150996 Z M226.242515,264.581881 L230.814371,264.581881 L230.814371,242.667581 L226.242515,242.667581 L226.242515,264.581881 Z M143.212878,239.800696 C144.247477,238.50032 144.764751,237.100384 144.764751,235.59998 L144.764751,235.300394 C144.764751,235.199623 144.75476,235.100013 144.735535,235 C144.013238,235.040015 143.247847,235.270369 142.437445,235.689598 C141.628255,236.110392 140.960203,236.641139 140.432534,237.279974 C139.379415,238.541142 138.85215,239.890315 138.85215,241.33067 L138.85215,241.614916 C138.85215,241.705695 138.862141,241.800309 138.881366,241.90108 C140.501362,242.060688 141.945199,241.360291 143.212878,239.800696 L143.212878,239.800696 Z M168.12294,256.249731 L167.980993,256.249731 L162.03761,242.667581 L157.370383,242.667581 L157.370383,264.581528 L161.438034,264.581528 L161.438034,250.389053 L161.626859,250.389053 L166.593672,261.658884 L169.446377,261.658884 L174.397447,250.389053 L174.587079,250.389053 L174.587079,264.581528 L178.701608,264.581528 L178.701608,242.667581 L174.066272,242.667581 L168.12294,256.249731 Z M146.901265,250.901332 C146.861249,248.46059 147.915478,246.560637 150.06163,245.200666 C148.851225,243.440641 147.066272,242.451457 144.705914,242.230287 C143.866295,242.151467 142.792841,242.349879 141.487116,242.83067 C140.082537,243.351426 139.291765,243.610291 139.116363,243.610291 C138.745576,243.610291 138.033674,243.391442 136.978689,242.950262 C135.926024,242.510294 135.027972,242.290285 134.28645,242.290285 C133.037997,242.310671 131.876438,242.655672 130.803791,243.325288 C129.730741,243.99566 128.872654,244.911424 128.229227,246.070258 C127.408834,247.510967 127,249.23138 127,251.230943 C127,253.030882 127.301504,254.830519 127.906126,256.631669 C128.471893,258.352032 129.194947,259.861973 130.071856,261.160836 C130.851477,262.341166 131.536836,263.201171 132.120316,263.741909 C132.960287,264.581528 133.817618,264.982288 134.696797,264.941566 C135.262212,264.920726 136.002927,264.711162 136.920255,264.309998 C137.777939,263.931945 138.637136,263.741556 139.49598,263.741556 C140.295583,263.741556 141.12405,263.930784 141.983651,264.309998 C142.938976,264.711162 143.720161,264.910735 144.324733,264.910735 C145.222432,264.871527 146.060889,264.481111 146.842428,263.741909 C147.114361,263.500807 147.412434,263.171197 147.73392,262.751161 C148.10511,262.261993 148.461566,261.761774 148.802782,261.251211 C149.087079,260.81094 149.355581,260.360627 149.607784,259.901231 C149.878305,259.406462 150.117742,258.895344 150.324682,258.370854 C150.421214,258.150844 150.508915,257.926243 150.587785,257.696242 C150.665444,257.466242 150.743507,257.232002 150.82157,256.991657 C150.099677,256.672391 149.445855,256.220464 148.860863,255.640113 C147.574716,254.36204 146.920894,252.781303 146.901265,250.901332 L146.901265,250.901332 Z" id="logo-apple-music"></path>
                    </g>
                </g>
            </g>
        </g>
    </g>
</svg>