<?xml version="1.0" encoding="UTF-8"?>
<svg width="129px" height="24px" viewBox="0 0 129 24" version="1.1" xmlns="http://www.w3.org/2000/svg" xmlns:xlink="http://www.w3.org/1999/xlink">
    <!-- Generator: Sketch 61.2 (89653) - https://sketch.com -->
    <title>logo-resonne-white</title>
    <desc>Created with Sketch.</desc>
    <g id="Final" stroke="none" stroke-width="1" fill="none" fill-rule="evenodd" opacity="0.5">
        <g id="Résonne-HD-final" transform="translate(-250.000000, -5561.000000)" fill="#FFFFFF">
            <g id="content" transform="translate(-32.000000, 0.000000)">
                <g id="footer" transform="translate(32.000000, 5253.000000)">
                    <g id="sous-footer" transform="translate(0.000000, 273.000000)">
                        <g id="Group-5" transform="translate(250.000000, 35.000000)">
                            <path d="M21.2430902,6.50284995 C26.335569,6.50284995 29.3851899,9.75449069 29.3851899,15.0507597 C29.3851899,15.6868471 29.3174685,16.3574575 29.3174685,16.4247775 L17.5240192,16.4247775 C17.624523,18.6036141 19.4676673,20.1787288 21.6787503,20.1787288 C23.7561159,20.1787288 24.8948711,19.1395846 25.431035,17.6650184 L29.150106,18.771051 C28.3128621,21.6200665 25.6989013,24 21.6451053,24 C17.1220041,24 13.1350668,20.7487908 13.1350668,15.1845365 C13.1350668,9.921496 17.0215003,6.50284995 21.2430902,6.50284995 Z M120.5579,6.50319518 C125.650379,6.50319518 128.7,9.75440439 128.7,15.0506734 C128.7,15.6867608 128.63271,16.3573712 128.63271,16.4246912 L116.838829,16.4246912 C116.939333,18.6035278 118.782477,20.179074 120.99356,20.179074 C123.070926,20.179074 124.210113,19.1394983 124.745845,17.6649321 L128.464916,18.7709647 C127.627672,21.6199802 125.013711,23.9999137 120.959915,23.9999137 C116.436814,23.9999137 112.449877,20.7487045 112.449877,15.1844502 C112.449877,9.92184123 116.33631,6.50319518 120.5579,6.50319518 Z M58.3689255,6.50302257 C63.2940418,6.50302257 67.0131128,10.1564254 67.0131128,15.2515976 C67.0131128,20.3131098 63.2940418,23.9997411 58.3689255,23.9997411 C53.4438092,23.9997411 49.7247383,20.3131098 49.7247383,15.2515976 C49.7247383,10.1564254 53.4438092,6.50302257 58.3689255,6.50302257 Z M80.9523823,6.56965207 C85.0398234,6.56965207 86.9161814,9.48598759 86.9161814,13.106162 L86.9161814,23.4971716 L82.459939,23.4971716 L82.459939,13.8773209 C82.459939,12.0337894 81.555405,10.5920201 79.4111807,10.5920201 C77.4679639,10.5920201 76.3287774,12.1006779 76.3287774,14.0115293 L76.3287774,23.4971716 L71.8725349,23.4971716 L71.8725349,7.00593725 L76.1946286,7.00593725 L76.1946286,9.05056549 C77.2000977,7.34081093 79.1769595,6.56965207 80.9523823,6.56965207 Z M58.3689255,10.5586191 C56.1914875,10.5586191 54.1809807,12.1341652 54.1809807,15.2515976 C54.1809807,18.33537 56.1914875,19.9441446 58.3689255,19.9441446 C60.5463635,19.9441446 62.5568703,18.3685984 62.5568703,15.2515976 C62.5568703,12.1341652 60.5463635,10.5586191 58.3689255,10.5586191 Z M39.4377672,6.50319518 C44.1282309,6.50319518 45.7035089,9.48598759 45.9036538,11.262199 L45.9036538,11.262199 L42.1850141,12.1006779 C42.0508653,11.1284222 41.3473389,9.88818125 39.4709809,9.88818125 C38.2985806,9.88818125 37.3604016,10.5920201 37.3604016,11.5306158 C37.3604016,12.3350031 37.9634243,12.8381768 38.8683896,13.0056136 L38.8683896,13.0056136 L41.2131901,13.5087872 C44.4633872,14.1789661 46.105524,16.1567059 46.105524,18.5702994 C46.105524,18.7131385 46.0964657,18.8559777 46.084388,18.9988169 L46.084388,18.9988169 L41.8438189,18.9988169 C41.8446816,18.9785346 41.8502891,18.9591153 41.8502891,18.938833 C41.8502891,18.2013342 41.3473389,17.5976122 40.0744349,17.3296269 L40.0744349,17.3296269 L37.8965655,16.8273164 C34.7136585,16.1230459 33.2729606,14.2121946 33.2729606,11.899581 C33.2729606,8.95001708 35.8860587,6.50319518 39.4377672,6.50319518 Z M101.861308,6.56978153 C105.948318,6.56978153 107.824676,9.48611705 107.824676,13.1062915 L107.824676,13.1062915 L107.824676,16.4429452 L103.368434,16.4429452 L103.368434,13.8774503 C103.368434,12.0334874 102.4639,10.5921496 100.319675,10.5921496 C98.3768899,10.5921496 97.237272,12.1003758 97.237272,14.0112272 L97.237272,14.0112272 L97.237272,16.4429452 L92.7810295,16.4429452 L92.7810295,7.00563517 L97.1031232,7.00563517 L97.1031232,9.05069496 C98.1085922,7.34094039 100.085885,6.56978153 101.861308,6.56978153 Z M9.01298866,6.87142677 C9.38135872,6.87142677 9.71694643,6.90508676 10.0516714,6.93874674 L10.0516714,6.93874674 L10.0516714,11.4301969 C9.54958392,11.33008 9.11349244,11.2959885 8.71147734,11.2959885 C6.43310423,11.2959885 4.45667379,12.4024526 4.45667379,15.955307 L4.45667379,15.955307 L4.45667379,16.4252522 L-8.52651283e-14,16.4252522 L-8.52651283e-14,7.00563517 L4.32252498,7.00563517 L4.32252498,9.45288861 C5.32799406,7.27362043 7.60593583,6.87142677 9.01298866,6.87142677 Z M120.624759,10.1233696 C118.313172,10.1233696 117.040268,11.8663526 116.939333,13.3745788 L124.310616,13.3745788 C124.243758,11.7321442 123.170998,10.1233696 120.624759,10.1233696 Z M21.3103803,10.1234559 C18.9979308,10.1234559 17.7254581,11.8664389 17.624523,13.3746651 L24.9953749,13.3746651 C24.9285161,11.7322305 23.8566197,10.1234559 21.3103803,10.1234559 Z M27.3410381,0 L22.7842918,5.02828374 L19.1993697,5.02828374 L22.2481279,0 L27.3410381,0 Z" id="logo-resonne-white"></path>
                        </g>
                    </g>
                </g>
            </g>
        </g>
    </g>
</svg>