<?xml version="1.0" encoding="UTF-8"?>
<svg width="132px" height="26px" viewBox="0 0 132 26" version="1.1" xmlns="http://www.w3.org/2000/svg" xmlns:xlink="http://www.w3.org/1999/xlink">
    <!-- Generator: Sketch 61.2 (89653) - https://sketch.com -->
    <title>logo deezer</title>
    <desc>Created with Sketch.</desc>
    <g id="Final" stroke="none" stroke-width="1" fill="none" fill-rule="evenodd">
        <g id="Résonne-HD-final" transform="translate(-234.000000, -4760.000000)" fill="#FFFFFF">
            <g id="content" transform="translate(-32.000000, 0.000000)">
                <g id="playlist" transform="translate(142.000000, 4236.000000)">
                    <g id="deezer" transform="translate(0.000000, 287.000000)">
                        <path d="M164.042479,258.665483 C161.479375,258.665483 159.520776,256.779425 159.520776,253.756897 C159.520776,250.686008 161.503555,248.75159 164.042479,248.75159 C166.508862,248.75159 168.564181,250.71043 168.564181,253.756897 C168.564181,256.779425 166.508862,258.665483 164.042479,258.665483 L164.042479,258.665483 Z M182.733745,245.148833 C187.448889,245.148833 190.640679,247.784478 190.640679,252.475441 C190.640679,253.225029 190.568139,253.902075 190.423057,254.554941 L190.423057,254.554941 L178.840729,254.554941 C178.889089,257.166405 180.896048,258.641399 183.338251,258.641399 C185.441931,258.641399 186.771843,257.67419 187.303808,255.715592 L187.303808,255.715592 L191.221005,257.263126 C190.036174,260.575817 187.327988,262.244253 183.338251,262.244253 C178.066962,262.244253 174.246486,259.004103 174.246486,253.587732 C174.246486,248.727506 177.704258,245.148833 182.733745,245.148833 Z M199.780926,245.148833 C204.49607,245.148833 207.687618,247.784478 207.687618,252.475441 C207.687618,253.225029 207.615077,253.902075 207.470238,254.554941 L207.470238,254.554941 L195.887667,254.554941 C195.93627,257.166405 197.942987,258.641399 200.385431,258.641399 C202.488869,258.641399 203.818782,257.67419 204.350747,255.715592 L204.350747,255.715592 L208.268185,257.263126 C207.083112,260.575817 204.375169,262.244253 200.385431,262.244253 C195.1139,262.244253 191.293424,259.004103 191.293424,253.587732 C191.293424,248.727506 194.751197,245.148833 199.780926,245.148833 Z M223.622532,245.148809 L223.622532,248.945104 L214.240604,258.08523 L223.888515,258.08523 L223.888515,262.244229 L208.48571,262.244229 L208.48571,258.278672 L217.843458,249.114366 L208.775873,249.114366 L208.775873,245.148809 L223.622532,245.148809 Z M232.738526,245.148833 C237.45367,245.148833 240.64546,247.784478 240.64546,252.475441 C240.64546,253.225029 240.572677,253.902075 240.427838,254.554941 L240.427838,254.554941 L228.845267,254.554941 C228.89387,257.166405 230.900587,258.641399 233.343031,258.641399 C235.446711,258.641399 236.776623,257.67419 237.308347,255.715592 L237.308347,255.715592 L241.225785,257.263126 C240.040954,260.575817 237.332769,262.244253 233.343031,262.244253 C228.071742,262.244253 224.251024,259.004103 224.251024,253.587732 C224.251024,248.727506 227.709039,245.148833 232.738526,245.148833 Z M129.658173,258.931562 L129.658173,262.244253 L124,262.244253 L124,258.931562 L129.658173,258.931562 Z M136.501177,258.931562 L136.501177,262.244253 L130.843004,262.244253 L130.843004,258.931562 L136.501177,258.931562 Z M143.344181,258.931562 L143.344181,262.244253 L137.686008,262.244253 L137.686008,258.931562 L143.344181,258.931562 Z M150.187185,258.931562 L150.187185,262.244253 L144.529012,262.244253 L144.529012,258.931562 L150.187185,258.931562 Z M246.980534,245.172965 L246.98,247.735 L247.07473,247.539881 C247.791269,246.12554 249.073505,245.251323 250.846382,245.177978 L251.091172,245.172965 C254.162061,245.172965 256,247.300825 256,250.226632 L256,250.226632 L256,251.532364 L251.526658,251.532364 L251.526658,251.04876 C251.526658,249.791388 250.68035,248.558196 249.350438,248.534016 C247.923563,248.534016 246.980534,249.501225 246.980534,251.242443 L246.980534,251.242443 L246.980534,262.244446 L242.362111,262.244446 L242.362111,245.172965 L246.980534,245.172965 Z M173.013343,237 L173.013343,262.219976 L168.588361,262.219976 L168.588361,259.778015 C167.451891,261.54293 165.420752,262.219976 163.002729,262.219976 C158.166684,262.219976 154.902353,259.052608 154.902353,253.756897 C154.902353,248.388887 158.311765,245.148978 163.026909,245.148978 C165.444932,245.148978 167.37935,245.946684 168.4191,247.71184 L168.4191,247.71184 L168.4191,237 L173.013343,237 Z M150.187185,254.337319 L150.187185,257.65001 L144.529012,257.65001 L144.529012,254.337319 L150.187185,254.337319 Z M143.344181,254.337319 L143.344181,257.65001 L137.686008,257.65001 L137.686008,254.337319 L143.344181,254.337319 Z M136.501177,254.337319 L136.501177,257.65001 L130.843004,257.65001 L130.843004,254.337319 L136.501177,254.337319 Z M150.187185,249.743076 L150.187185,253.055767 L144.529012,253.055767 L144.529012,249.743076 L150.187185,249.743076 Z M136.501177,249.743076 L136.501177,253.055767 L130.843004,253.055767 L130.843004,249.743076 L136.501177,249.743076 Z M182.733745,248.485704 C180.847688,248.485704 179.275973,249.597995 178.840729,251.484052 L178.840729,251.484052 L186.167337,251.484052 L186.191518,251.338971 C186.191518,249.597995 184.789065,248.485704 182.733745,248.485704 Z M199.780926,248.485704 C197.894626,248.485704 196.322912,249.597995 195.887667,251.484052 L195.887667,251.484052 L203.214276,251.484052 L203.238698,251.338971 C203.238698,249.597995 201.836245,248.485704 199.780926,248.485704 Z M232.738526,248.485704 C230.852468,248.485704 229.280753,249.597995 228.845267,251.484052 L228.845267,251.484052 L236.172118,251.484052 L236.196298,251.338971 C236.196298,249.597995 234.793845,248.485704 232.738526,248.485704 Z M150.187185,245.148833 L150.187185,248.461524 L144.529012,248.461524 L144.529012,245.148833 L150.187185,245.148833 Z" id="logo-deezer"></path>
                    </g>
                </g>
            </g>
        </g>
    </g>
</svg>