<?xml version="1.0" encoding="UTF-8"?>
<svg width="390px" height="108px" viewBox="0 0 390 108" version="1.1" xmlns="http://www.w3.org/2000/svg" xmlns:xlink="http://www.w3.org/1999/xlink">
    <!-- Generator: Sketch 61.2 (89653) - https://sketch.com -->
    <title>Playlist</title>
    <desc>Created with Sketch.</desc>
    <g id="Final" stroke="none" stroke-width="1" fill="none" fill-rule="evenodd">
        <g id="Résonne-HD-final" transform="translate(-525.000000, -4235.000000)" stroke="#181E25">
            <g id="content" transform="translate(-32.000000, 0.000000)">
                <g id="playlist" transform="translate(142.000000, 4236.000000)">
                    <path d="M431.732,83.904 L431.732,53.466 L446.21,53.466 C454.114,53.466 460.517,51.11 465.419,46.398 C470.321,41.686 472.772,35.644 472.772,28.272 C472.772,20.9 470.321,14.858 465.419,10.146 C460.517,5.434 454.114,3.078 446.21,3.078 L446.21,3.078 L416,3.078 L416,83.904 L431.732,83.904 Z M444.272,39.9 L431.846,39.9 L431.846,16.758 L444.272,16.758 C448.224,16.758 451.321,17.803 453.563,19.893 C455.805,21.983 456.926,24.814 456.926,28.386 C456.926,31.882 455.786,34.675 453.506,36.765 C451.226,38.855 448.148,39.9 444.272,39.9 L444.272,39.9 Z M501.308,83.904 L501.308,1.368 L486.146,1.368 L486.146,83.904 L501.308,83.904 Z M536,85.5 C543.448,85.5 548.958,82.726 552.53,77.178 C552.53,79.99 552.72,82.232 553.1,83.904 L553.1,83.904 L567.008,83.904 C566.552,81.32 566.324,78.356 566.324,75.012 L566.324,75.012 L566.324,47.424 C566.324,41.192 564.348,36.081 560.396,32.091 C556.444,28.101 550.288,26.106 541.928,26.106 C534.936,26.106 529.312,27.968 525.056,31.692 C520.8,35.416 518.406,39.71 517.874,44.574 L517.874,44.574 L531.326,47.424 C531.554,44.84 532.599,42.674 534.461,40.926 C536.323,39.178 538.85,38.304 542.042,38.304 C545.082,38.304 547.419,38.988 549.053,40.356 C550.687,41.724 551.504,43.472 551.504,45.6 C551.504,47.88 550.098,49.21 547.286,49.59 L547.286,49.59 L533.492,51.642 C528.552,52.402 524.524,54.226 521.408,57.114 C518.292,60.002 516.734,63.84 516.734,68.628 C516.734,73.188 518.501,77.14 522.035,80.484 C525.569,83.828 530.224,85.5 536,85.5 Z M539.192,74.214 C536.912,74.214 535.126,73.587 533.834,72.333 C532.542,71.079 531.896,69.54 531.896,67.716 C531.896,63.688 534.214,61.332 538.85,60.648 L538.85,60.648 L551.504,58.71 L551.504,61.218 C551.504,65.854 550.345,69.179 548.027,71.193 C545.709,73.207 542.764,74.214 539.192,74.214 Z M602.498,106.02 L637.724,27.816 L621.536,27.816 L607.742,60.648 L592.808,27.816 L575.822,27.816 L599.648,76.836 L586.424,106.02 L602.498,106.02 Z M665.12,83.904 L665.12,1.368 L649.958,1.368 L649.958,83.904 L665.12,83.904 Z M691.832,18.696 C694.416,18.696 696.62,17.784 698.444,15.96 C700.268,14.136 701.18,11.97 701.18,9.462 C701.18,6.802 700.268,4.56 698.444,2.736 C696.62,0.912 694.416,0 691.832,0 C689.248,0 687.044,0.931 685.22,2.793 C683.396,4.655 682.484,6.878 682.484,9.462 C682.484,11.97 683.396,14.136 685.22,15.96 C687.044,17.784 689.248,18.696 691.832,18.696 Z M699.47,83.904 L699.47,27.816 L684.308,27.816 L684.308,83.904 L699.47,83.904 Z M737.24,85.614 C744.156,85.614 749.514,83.79 753.314,80.142 C757.114,76.494 759.014,72.162 759.014,67.146 C759.014,62.89 757.589,59.242 754.739,56.202 C751.889,53.162 747.766,51.072 742.37,49.932 L742.37,49.932 L734.39,48.222 C730.97,47.614 729.26,45.942 729.26,43.206 C729.26,41.61 729.963,40.28 731.369,39.216 C732.775,38.152 734.466,37.62 736.442,37.62 C739.33,37.62 741.515,38.38 742.997,39.9 C744.479,41.42 745.372,43.168 745.676,45.144 L745.676,45.144 L758.33,42.294 C758.102,40.622 757.57,38.912 756.734,37.164 C755.898,35.416 754.682,33.687 753.086,31.977 C751.49,30.267 749.248,28.861 746.36,27.759 C743.472,26.657 740.128,26.106 736.328,26.106 C730.324,26.106 725.327,27.892 721.337,31.464 C717.347,35.036 715.352,39.368 715.352,44.46 C715.352,48.564 716.663,52.098 719.285,55.062 C721.907,58.026 725.84,60.078 731.084,61.218 L731.084,61.218 L738.494,62.928 C742.522,63.764 744.536,65.588 744.536,68.4 C744.536,69.996 743.89,71.326 742.598,72.39 C741.306,73.454 739.482,73.986 737.126,73.986 C734.01,73.986 731.559,73.169 729.773,71.535 C727.987,69.901 727.018,67.868 726.866,65.436 L726.866,65.436 L713.87,68.286 C714.098,70.034 714.649,71.839 715.523,73.701 C716.397,75.563 717.689,77.425 719.399,79.287 C721.109,81.149 723.522,82.669 726.638,83.847 C729.754,85.025 733.288,85.614 737.24,85.614 Z M795.644,84.702 C799.14,84.702 801.99,84.246 804.194,83.334 L804.194,83.334 L804.194,70.794 C803.13,71.098 801.572,71.25 799.52,71.25 C797.24,71.25 795.568,70.756 794.504,69.768 C793.44,68.78 792.908,67.108 792.908,64.752 L792.908,64.752 L792.908,41.268 L804.194,41.268 L804.194,27.816 L792.908,27.816 L792.908,11.058 L779.228,11.058 L779.228,18.924 C779.228,21.584 778.487,23.731 777.005,25.365 C775.523,26.999 773.376,27.816 770.564,27.816 L770.564,27.816 L767.714,27.816 L767.714,41.268 L777.86,41.268 L777.86,67.374 C777.86,72.77 779.456,77.007 782.648,80.085 C785.84,83.163 790.172,84.702 795.644,84.702 Z" id="Playlist"></path>
                </g>
            </g>
        </g>
    </g>
</svg>