<?xml version="1.0" encoding="UTF-8"?>
<svg width="26px" height="18px" viewBox="0 0 26 18" version="1.1" xmlns="http://www.w3.org/2000/svg" xmlns:xlink="http://www.w3.org/1999/xlink">
    <!-- Generator: Sketch 61.2 (89653) - https://sketch.com -->
    <title>arrow-right</title>
    <desc>Created with Sketch.</desc>
    <g id="Final" stroke="none" stroke-width="1" fill="none" fill-rule="evenodd">
        <g id="Résonne-HD-final" transform="translate(-1210.000000, -3400.000000)" fill="#ffffff">
            <g id="content" transform="translate(-32.000000, 0.000000)">
                <g id="nos-partenaires" transform="translate(282.000000, 3200.000000)">
                    <path d="M976.965,200.26625 C976.621,199.91125 976.051,199.91125 975.695,200.26625 C975.352,200.61025 975.352,201.18025 975.695,201.52425 L982.133,207.96125 L960.891,207.96125 C960.395,207.96125 960,208.35625 960,208.85225 C960,209.34425 960.395,209.75425 960.891,209.75425 L982.133,209.75425 L975.695,216.17625 C975.352,216.53225 975.352,217.10625 975.695,217.44625 C976.051,217.80125 976.621,217.80125 976.965,217.44625 L984.926,209.48525 C985.281,209.14125 985.281,208.57125 984.926,208.23125 L976.965,200.26625 Z" id="arrow-right"></path>
                </g>
            </g>
        </g>
    </g>
</svg>