<?xml version="1.0" encoding="UTF-8"?>
<svg width="14px" height="14px" viewBox="0 0 14 14" version="1.1" xmlns="http://www.w3.org/2000/svg" xmlns:xlink="http://www.w3.org/1999/xlink">
    <!-- Generator: Sketch 61.2 (89653) - https://sketch.com -->
    <title>insta</title>
    <desc>Created with Sketch.</desc>
    <g id="Final" stroke="none" stroke-width="1" fill="none" fill-rule="evenodd">
        <g id="Résonne-HD-final" transform="translate(-318.000000, -5396.000000)" fill="#FFFFFF" fill-rule="nonzero">
            <g id="content" transform="translate(-32.000000, 0.000000)">
                <g id="footer" transform="translate(32.000000, 5253.000000)">
                    <g id="contact">
                        <g id="RS" transform="translate(250.000000, 132.000000)">
                            <g id="insta" transform="translate(57.000000, 0.000000)">
                                <path d="M21.5,25 L14.5,25 C12.701,25 11,23.299 11,21.5 L11,14.5 C11,12.701 12.701,11 14.5,11 L21.5,11 C23.299,11 25,12.701 25,14.5 L25,21.5 C25,23.299 23.299,25 21.5,25 Z M14.2666667,12.4 C13.394,12.4 12.4,13.394 12.4,14.2666667 L12.4,21.7333333 C12.4,22.6228 13.3772,23.6 14.2666667,23.6 L21.7333333,23.6 C22.606,23.6 23.6,22.606 23.6,21.7333333 L23.6,14.2666667 C23.6,13.394 22.606,12.4 21.7333333,12.4 L14.2666667,12.4 Z M21.626875,15.2455 C22.0907942,15.2455 22.466875,14.8694192 22.466875,14.4055 C22.466875,13.9415808 22.0907942,13.5655 21.626875,13.5655 C21.1629558,13.5655 20.786875,13.9415808 20.786875,14.4055 C20.786875,14.8694192 21.1629558,15.2455 21.626875,15.2455 Z M18,21.5 C16.06975,21.5 14.5,19.93025 14.5,18 C14.5,16.06975 16.06975,14.5 18,14.5 C19.93025,14.5 21.5,16.06975 21.5,18 C21.5,19.93025 19.93025,21.5 18,21.5 Z M18,15.9 C16.84185,15.9 15.9,16.84185 15.9,18 C15.9,19.15815 16.84185,20.1 18,20.1 C19.15815,20.1 20.1,19.15815 20.1,18 C20.1,16.84185 19.15815,15.9 18,15.9 Z"></path>
                            </g>
                        </g>
                    </g>
                </g>
            </g>
        </g>
    </g>
</svg>