<?xml version="1.0" encoding="UTF-8"?>
<svg width="14px" height="14px" viewBox="0 0 14 14" version="1.1" xmlns="http://www.w3.org/2000/svg" xmlns:xlink="http://www.w3.org/1999/xlink">
    <!-- Generator: Sketch 61.2 (89653) - https://sketch.com -->
    <title>linkedin</title>
    <desc>Created with Sketch.</desc>
    <g id="Final" stroke="none" stroke-width="1" fill="none" fill-rule="evenodd">
        <g id="Résonne-HD-final" transform="translate(-262.000000, -5396.000000)" fill="#FFFFFF">
            <g id="content" transform="translate(-32.000000, 0.000000)">
                <g id="footer" transform="translate(32.000000, 5253.000000)">
                    <g id="contact">
                        <g id="RS" transform="translate(250.000000, 132.000000)">
                            <g id="in">
                                <path d="M22.2629089,15.579236 C24.1439994,15.579236 25.5542321,16.8305269 25.5542321,19.5190683 L25.5542321,19.5190683 L25.554118,24.537768 L22.6956322,24.537768 L22.6956322,19.8549109 C22.6956322,18.6786777 22.2819761,17.8760482 21.2471509,17.8760482 C20.4574023,17.8760482 19.9870012,18.4171376 19.7804015,18.939753 C19.7048177,19.1270487 19.6862642,19.3880078 19.6862642,19.649606 L19.6862642,19.649606 L19.6862642,24.5380004 L16.8273218,24.5380004 C16.8273218,24.5380004 16.8649995,16.6063414 16.8273218,15.7850057 L16.8273218,15.7850057 L19.6862642,15.7850057 L19.6862642,17.0247939 C20.0656678,16.4288056 20.7451804,15.579236 22.2629089,15.579236 Z M15.2450273,15.7847733 L15.2450273,24.537768 L12.3864274,24.537768 L12.3864274,15.7847733 L15.2450273,15.7847733 Z M13.8346233,11.5652174 C14.8125324,11.5652174 15.4147485,12.2188933 15.4333019,13.0771189 C15.4333019,13.9175677 14.8125324,14.5900661 13.8157845,14.5900661 L13.8157845,14.5900661 L13.7975165,14.5900661 C12.8378183,14.5900661 12.2173913,13.9175677 12.2173913,13.0771189 C12.2173913,12.2188933 12.8567143,11.5652174 13.8346233,11.5652174 Z" id="linkedin"></path>
                            </g>
                        </g>
                    </g>
                </g>
            </g>
        </g>
    </g>
</svg>