<?xml version="1.0" encoding="UTF-8"?>
<svg width="32px" height="20px" viewBox="0 0 32 20" version="1.1" xmlns="http://www.w3.org/2000/svg" xmlns:xlink="http://www.w3.org/1999/xlink">
    <!-- Generator: Sketch 61.2 (89653) - https://sketch.com -->
    <title>picto3</title>
    <desc>Created with Sketch.</desc>
    <g id="Final" stroke="none" stroke-width="1" fill="none" fill-rule="evenodd">
        <g id="Résonne-HD-final" transform="translate(-750.000000, -1070.000000)" fill="#A6F9F4">
            <g id="content" transform="translate(-32.000000, 0.000000)">
                <g id="éco" transform="translate(282.000000, 1043.000000)">
                    <g id="3" transform="translate(480.000000, 0.000000)">
                        <g id="Group-4" transform="translate(20.000000, 27.000000)">
                            <path d="M30.5454545,14.7613714 L24.7272727,12.5670857 L24.7272727,6.63291429 L30.5454545,4.43862857 L30.5454545,14.7613714 Z M31.2727273,2.74285714 C31.1556364,2.74285714 31.0487273,2.77508571 30.9512727,2.82171429 L30.9476364,2.81485714 L23.7301818,5.53714286 C23.7229091,5.54057143 23.7149091,5.54262857 23.7076364,5.54605714 L23.6749091,5.55771429 L23.6785455,5.56457143 C23.44,5.67702857 23.2727273,5.90331429 23.2727273,6.17142857 L23.2727273,13.0285714 C23.2727273,13.2966857 23.44,13.5222857 23.6785455,13.6354286 L23.6749091,13.6416 L23.7069091,13.6539429 C23.7149091,13.6573714 23.7229091,13.6601143 23.7309091,13.6628571 L30.9476364,16.3844571 L30.9512727,16.3782857 C31.0487273,16.4249143 31.1556364,16.4571429 31.2727273,16.4571429 C31.6741818,16.4571429 32,16.1499429 32,15.7714286 L32,3.42857143 C32,3.05005714 31.6741818,2.74285714 31.2727273,2.74285714 L31.2727273,2.74285714 Z M20.3636364,16.4571429 C20.3636364,17.2148571 19.712,17.8285714 18.9090909,17.8285714 L2.90909091,17.8285714 C2.10618182,17.8285714 1.45454545,17.2148571 1.45454545,16.4571429 L1.45454545,2.74285714 C1.45454545,1.98514286 2.10618182,1.37142857 2.90909091,1.37142857 L18.9090909,1.37142857 C19.712,1.37142857 20.3636364,1.98514286 20.3636364,2.74285714 L20.3636364,16.4571429 Z M18.9090909,0 L2.90909091,0 C1.30254545,0 0,1.22811429 0,2.74285714 L0,16.4571429 C0,17.9725714 1.30254545,19.2 2.90909091,19.2 L18.9090909,19.2 C20.5156364,19.2 21.8181818,17.9725714 21.8181818,16.4571429 L21.8181818,2.74285714 C21.8181818,1.22811429 20.5156364,0 18.9090909,0 L18.9090909,0 Z" id="picto3"></path>
                        </g>
                    </g>
                </g>
            </g>
        </g>
    </g>
</svg>