<?xml version="1.0" encoding="UTF-8"?>
<svg width="32px" height="29px" viewBox="0 0 32 29" version="1.1" xmlns="http://www.w3.org/2000/svg" xmlns:xlink="http://www.w3.org/1999/xlink">
    <!-- Generator: Sketch 61.2 (89653) - https://sketch.com -->
    <title>picto1</title>
    <desc>Created with Sketch.</desc>
    <g id="Final" stroke="none" stroke-width="1" fill="none" fill-rule="evenodd">
        <g id="Résonne-HD-final" transform="translate(-270.000000, -1066.000000)" fill="#181E25">
            <g id="content" transform="translate(-32.000000, 0.000000)">
                <g id="éco" transform="translate(282.000000, 1043.000000)">
                    <g id="1">
                        <g id="Group-4" transform="translate(20.000000, 23.000000)">
                            <path d="M1.50472727,27.0225777 C1.86327273,24.5926074 4.07636364,23.6015663 6.20945455,22.8621956 C7.63927273,22.5017523 10.1992727,21.032253 10.1992727,17.8664667 C10.1992727,15.1570996 9.056,13.8368963 8.44145455,13.1273848 C8.36509091,13.0392291 8.29454545,12.9610264 8.24,12.8863784 C8.22254545,12.8643395 8.20509091,12.8423005 8.18690909,12.8195507 C8.13527273,12.7235747 7.84727273,12.0844456 8.22618182,10.5488295 C8.30254545,10.2417062 8.27127273,9.91680969 8.13745455,9.62888167 C7.77672727,8.85040962 6.81890909,6.78301536 7.45890909,5.25095393 C8.32509091,3.17502847 9.096,2.76410897 10.496,2.1619484 C10.5658182,2.1320892 10.6327273,2.09654253 10.6967273,2.05673026 C11.0487273,1.83491905 12.1963636,1.42257769 13.3767273,1.42257769 C14.0254545,1.42257769 14.5774545,1.54343636 15.0181818,1.78230998 C15.5418182,2.0659724 16.0370909,2.59135216 16.7527273,4.23076453 C17.7650909,6.55054014 17.5112727,8.52977867 16.8101818,9.46323419 C16.5563636,9.80021661 16.4683636,10.2310422 16.5687273,10.6376961 C16.9214545,12.0673832 16.6618182,12.6446611 16.6072727,12.7456136 C16.5643636,12.7896915 16.5236364,12.837324 16.4872727,12.8863784 C16.432,12.9610264 16.3621818,13.0392291 16.2850909,13.1273848 C15.6712727,13.8368963 14.5272727,15.1570996 14.5272727,17.8664667 C14.5272727,21.032964 17.0887273,22.5017523 18.5185455,22.8621956 C20.6305455,23.5923241 22.8618182,24.5790997 23.2218182,27.0225777 L1.50472727,27.0225777 Z M18.936,21.4986253 C18.936,21.4986253 15.9818182,20.8239496 15.9818182,17.8664667 C15.9818182,15.2687162 17.1956364,14.3537449 17.6647273,13.7217251 C17.6647273,13.7217251 18.6269091,12.9133939 17.9825455,10.3042684 C19.0567273,8.87529229 19.2581818,6.34863506 18.0909091,3.67268183 C17.3578182,1.99345719 16.7098182,1.0735094 15.7236364,0.5388875 C14.9985455,0.145741342 14.1767273,0 13.3767273,0 C11.8865455,0 10.4741818,0.506184565 9.91054545,0.860229387 C8.26109091,1.5697409 7.152,2.22308867 6.112,4.71348829 C5.26836364,6.73467189 6.28363636,9.07506457 6.81236364,10.2154017 C6.168,12.8245272 7.06254545,13.7217251 7.06254545,13.7217251 C7.53090909,14.3537449 8.74472727,15.2687162 8.74472727,17.8664667 C8.74472727,20.8239496 5.79127273,21.4986253 5.79127273,21.4986253 C3.91418182,22.1455747 0,23.4679108 0,27.7335111 C0,27.7335111 0,28.4444444 0.727272727,28.4444444 L24,28.4444444 C24.7272727,28.4444444 24.7272727,27.7335111 24.7272727,27.7335111 C24.7272727,23.4679108 20.8123636,22.1455747 18.936,21.4986253 L18.936,21.4986253 Z M26.7192727,20.7720514 C26.7192727,20.7720514 24.0261818,20.1642034 24.0261818,17.5017579 C24.0261818,15.163498 25.3149091,14.3402372 25.7418182,13.7722014 C25.7418182,13.7722014 26.6196364,13.0442056 26.0327273,10.6959927 C27.0109091,9.40991419 27.2407273,7.13563831 26.176,4.72770696 C25.5083636,3.2162626 24.6901818,2.38873615 23.7912727,1.90743425 C23.1294545,1.55338943 22.3803636,1.42328862 21.6509091,1.42328862 C20.5636364,1.42328862 19.5294545,1.71334944 18.8930909,1.99345719 C19.0785455,2.34536921 19.2552727,2.7178983 19.4290909,3.11531006 C19.4538182,3.17218473 19.4705455,3.22977034 19.4945455,3.28664501 C19.9061818,3.10748979 20.7316364,2.84444444 21.6509091,2.84444444 C22.2232727,2.84444444 22.7083636,2.94895165 23.0930909,3.15512233 C23.5447273,3.39683968 24.2174545,3.88098531 24.8407273,5.29218806 C25.7272727,7.29630926 25.4909091,9.0245883 24.8654545,9.84784915 C24.6072727,10.1876753 24.5170909,10.6227665 24.6196364,11.034397 C24.9141818,12.2109917 24.7243636,12.7050904 24.6763636,12.8039101 C24.6385455,12.8444333 24.6029091,12.8863784 24.5694545,12.9311672 C24.5403636,12.9688467 24.4392727,13.0754867 24.3658182,13.1522675 C23.7381818,13.8113027 22.5716364,15.0369519 22.5716364,17.5017579 C22.5716364,20.4379127 24.9650909,21.8000611 26.3061818,22.1363326 C28.2225455,22.7903913 30.0909091,23.6058319 30.4741818,25.6 L25.8727273,25.6 C26.0043636,26.0386459 26.0967273,26.5107057 26.1410909,27.0218668 L31.3367273,27.0218668 C32,27.0218668 32,26.3827376 32,26.3827376 C32,22.5429865 28.4298182,21.352884 26.7192727,20.7720514 L26.7192727,20.7720514 Z" id="picto1"></path>
                        </g>
                    </g>
                </g>
            </g>
        </g>
    </g>
</svg>