<?xml version="1.0" encoding="UTF-8"?>
<svg width="32px" height="21px" viewBox="0 0 32 21" version="1.1" xmlns="http://www.w3.org/2000/svg" xmlns:xlink="http://www.w3.org/1999/xlink">
    <!-- Generator: Sketch 61.2 (89653) - https://sketch.com -->
    <title>picto4</title>
    <desc>Created with Sketch.</desc>
    <g id="Final" stroke="none" stroke-width="1" fill="none" fill-rule="evenodd">
        <g id="Résonne-HD-final" transform="translate(-990.000000, -1070.000000)" fill="#A6F9F4">
            <g id="content" transform="translate(-32.000000, 0.000000)">
                <g id="éco" transform="translate(282.000000, 1043.000000)">
                    <g id="4" transform="translate(720.000000, 0.000000)">
                        <g id="Group-4" transform="translate(20.000000, 27.000000)">
                            <path d="M16,18.9090909 C7.96727273,18.9090909 1.45454545,12.6756364 1.45454545,10.1818182 C1.45454545,7.688 7.96727273,1.45454545 16,1.45454545 C24.0334545,1.45454545 30.5454545,7.688 30.5454545,10.1818182 C30.5454545,12.6756364 24.0334545,18.9090909 16,18.9090909 M16,0 C7.16363636,0 0,7.27272727 0,10.1818182 C0,13.0909091 7.16363636,20.3636364 16,20.3636364 C24.8363636,20.3636364 32,13.0909091 32,10.1818182 C32,7.27272727 24.8363636,0 16,0 M16,16 C12.7869091,16 10.1818182,13.3956364 10.1818182,10.1818182 C10.1818182,6.96872727 12.7869091,4.36363636 16,4.36363636 C19.2130909,4.36363636 21.8181818,6.96872727 21.8181818,10.1818182 C21.8181818,13.3956364 19.2130909,16 16,16 M16,2.90981818 C11.9832727,2.90981818 8.72727273,6.16581818 8.72727273,10.1818182 C8.72727273,14.1985455 11.9832727,17.4545455 16,17.4545455 C20.0167273,17.4545455 23.2727273,14.1985455 23.2727273,10.1818182 C23.2727273,6.16581818 20.0167273,2.90981818 16,2.90981818 M16,8 C14.7956364,8 13.8181818,8.97745455 13.8181818,10.1818182 C13.8181818,11.3869091 14.7956364,12.3636364 16,12.3636364 C17.2043636,12.3636364 18.1818182,11.3869091 18.1818182,10.1818182 C18.1818182,8.97745455 17.2043636,8 16,8" id="picto4"></path>
                        </g>
                    </g>
                </g>
            </g>
        </g>
    </g>
</svg>