<?xml version="1.0" encoding="UTF-8"?>
<svg width="30px" height="32px" viewBox="0 0 30 32" version="1.1" xmlns="http://www.w3.org/2000/svg" xmlns:xlink="http://www.w3.org/1999/xlink">
    <!-- Generator: Sketch 61.2 (89653) - https://sketch.com -->
    <title>picto2</title>
    <desc>Created with Sketch.</desc>
    <g id="Final" stroke="none" stroke-width="1" fill="none" fill-rule="evenodd">
        <g id="Résonne-HD-final" transform="translate(-510.000000, -1064.000000)" fill="#A6F9F4">
            <g id="content" transform="translate(-32.000000, 0.000000)">
                <g id="éco" transform="translate(282.000000, 1043.000000)">
                    <g id="2" transform="translate(240.000000, 0.000000)">
                        <g id="Group-4" transform="translate(20.000000, 21.000000)">
                            <path d="M27.6363636,7.37672727 L10.1818182,10.0618182 L10.1818182,4.26109091 L27.6363636,1.57527273 L27.6363636,7.37672727 Z M25.4545455,26.1818182 L22.5454545,26.1818182 C21.3403636,26.1818182 20.3636364,25.2058182 20.3636364,24 C20.3636364,22.7956364 21.3403636,21.8181818 22.5454545,21.8181818 L25.4545455,21.8181818 C26.6596364,21.8181818 27.6363636,22.7956364 27.6363636,24 C27.6363636,25.2058182 26.6596364,26.1818182 25.4545455,26.1818182 L25.4545455,26.1818182 Z M6.54545455,30.5454545 L3.63636364,30.5454545 C2.43127273,30.5454545 1.45454545,29.5694545 1.45454545,28.3643636 C1.45454545,27.1592727 2.43127273,26.1818182 3.63636364,26.1818182 L6.54545455,26.1818182 C7.75054545,26.1818182 8.72727273,27.1592727 8.72727273,28.3643636 C8.72727273,29.5694545 7.75054545,30.5454545 6.54545455,30.5454545 L6.54545455,30.5454545 Z M28.3636364,0 C28.3250909,0 28.2916364,0.0167272727 28.2552727,0.0225454545 L28.2530909,0.00872727273 L9.344,2.91781818 L9.34618182,2.93163636 C8.99854545,2.98618182 8.72727273,3.27345455 8.72727273,3.63636364 L8.72727273,25.4712727 C8.11854545,25.0109091 7.368,24.728 6.54545455,24.728 L3.63636364,24.728 C1.62836364,24.728 0,26.3563636 0,28.3643636 C0,30.3723636 1.62836364,32 3.63636364,32 L6.54545455,32 C8.55418182,32 10.1818182,30.3723636 10.1818182,28.3643636 L10.1818182,11.5338182 L27.6363636,8.848 L27.6363636,21.1083636 C27.0276364,20.648 26.2770909,20.3636364 25.4545455,20.3636364 L22.5454545,20.3636364 C20.5374545,20.3636364 18.9090909,21.9927273 18.9090909,24 C18.9090909,26.0087273 20.5374545,27.6363636 22.5454545,27.6363636 L25.4545455,27.6363636 C27.4632727,27.6363636 29.0909091,26.0087273 29.0909091,24 L29.0909091,0.727272727 C29.0909091,0.326545455 28.7650909,0 28.3636364,0 L28.3636364,0 Z" id="picto2"></path>
                        </g>
                    </g>
                </g>
            </g>
        </g>
    </g>
</svg>