<?xml version="1.0" encoding="UTF-8"?>
<svg width="27px" height="24px" viewBox="0 0 27 24" version="1.1" xmlns="http://www.w3.org/2000/svg" xmlns:xlink="http://www.w3.org/1999/xlink">
    <!-- Generator: Sketch 61.2 (89653) - https://sketch.com -->
    <title>sound off</title>
    <desc>Created with Sketch.</desc>
    <g id="Final" stroke="none" stroke-width="1" fill="none" fill-rule="evenodd">
        <g id="Résonne-HD-final" transform="translate(-1365.000000, -41.000000)" fill="#FFFFFF">
            <g id="content" transform="translate(-32.000000, 0.000000)">
                <g id="menu" transform="translate(32.000000, 0.000000)">
                    <g id="son" transform="translate(1365.000000, 41.000000)">
                        <path d="M13.7144177,21.2339734 L7.4263572,15.644491 C7.3946426,15.616205 7.35521365,15.6059192 7.32007046,15.5836333 C7.26778424,15.5484901 7.21892663,15.5124897 7.16064035,15.4893467 C7.09978262,15.4662036 7.03806774,15.4610607 6.97549571,15.4524892 C6.93520961,15.4464891 6.89920926,15.4284889 6.85720886,15.4284889 L2.57145332,15.4284889 C2.09830591,15.4284889 1.71430222,15.0436281 1.71430222,14.5713378 L1.71430222,9.42843117 C1.71430222,8.95614091 2.09830591,8.57128006 2.57145332,8.57128006 L6.85720886,8.57128006 C6.90263787,8.57128006 6.94206682,8.55242274 6.98578153,8.54556553 C7.04492495,8.53613687 7.10235408,8.53185111 7.15892605,8.51042234 C7.21892663,8.48727926 7.26949854,8.45042176 7.32264191,8.41527856 C7.35692796,8.39299263 7.39549976,8.38270682 7.4263572,8.35527799 L13.7144177,2.76579561 L13.7144177,21.2339734 Z M14.0024205,0.215771068 C14.2544229,-0.00794537069 14.6152835,-0.0628030416 14.9221436,0.0751982867 C15.230718,0.213199615 15.4287199,0.51920256 15.4287199,0.856920097 L15.4287199,0.856920097 L15.4287199,23.1428489 C15.4287199,23.4805664 15.230718,23.7865694 14.9221436,23.9245707 C14.8098568,23.9751426 14.6907128,24 14.5715688,24 C14.3658526,24 14.1618506,23.926285 14.0024205,23.7839979 L14.0024205,23.7839979 L6.53149144,17.1427911 L2.57145332,17.1427911 C1.15372539,17.1427911 -5.68434189e-14,15.9890657 -5.68434189e-14,14.5713378 L-5.68434189e-14,14.5713378 L-5.68434189e-14,9.42843117 C-5.68434189e-14,8.01070324 1.15372539,6.85697785 2.57145332,6.85697785 L2.57145332,6.85697785 L6.53149144,6.85697785 Z M25.1086131,7.96535995 C25.4437592,7.63021386 25.9854787,7.63021386 26.3206248,7.96535995 C26.6557709,8.30050603 26.6557709,8.84222553 26.3206248,9.17737161 L26.3206248,9.17737161 L23.4980262,11.9999702 L26.3206248,14.8225688 C26.6557709,15.1577149 26.6557709,15.6994344 26.3206248,16.0345805 C26.1534803,16.2017249 25.9340496,16.2857257 25.7146189,16.2857257 C25.4951883,16.2857257 25.2757576,16.2017249 25.1086131,16.0345805 L25.1086131,16.0345805 L22.2860145,13.2119819 L19.4634159,16.0345805 C19.2962714,16.2017249 19.0768408,16.2857257 18.8574101,16.2857257 C18.6379794,16.2857257 18.4185487,16.2017249 18.2514042,16.0345805 C17.9162582,15.6994344 17.9162582,15.1577149 18.2514042,14.8225688 L18.2514042,14.8225688 L21.0740028,11.9999702 L18.2514042,9.17737161 C17.9162582,8.84222553 17.9162582,8.30050603 18.2514042,7.96535995 C18.5865503,7.63021386 19.1282698,7.63021386 19.4634159,7.96535995 L19.4634159,7.96535995 L22.2860145,10.7879585 Z" id="sound-off"></path>
                    </g>
                </g>
            </g>
        </g>
    </g>
</svg>