<?xml version="1.0" encoding="UTF-8"?>
<svg width="27px" height="24px" viewBox="0 0 27 24" version="1.1" xmlns="http://www.w3.org/2000/svg" xmlns:xlink="http://www.w3.org/1999/xlink">
    <!-- Generator: Sketch 61.2 (89653) - https://sketch.com -->
    <title>sound on black</title>
    <desc>Created with Sketch.</desc>
    <g id="Final" stroke="none" stroke-width="1" fill="none" fill-rule="evenodd">
        <g id="Résonne-HD-final-scroll" transform="translate(-1365.000000, -41.000000)" fill="#000000">
            <g id="menu">
                <g id="son" transform="translate(1365.000000, 41.000000)">
                    <path d="M13.7144177,21.2339734 L7.4263572,15.644491 C7.3946426,15.616205 7.35521365,15.6059192 7.32007046,15.5836333 C7.26778424,15.5484901 7.21892663,15.5124897 7.16064035,15.4893467 C7.09978262,15.4662036 7.03806774,15.4610607 6.97549571,15.4524892 C6.93520961,15.4464891 6.89920926,15.4284889 6.85720886,15.4284889 L2.57145332,15.4284889 C2.09830591,15.4284889 1.71430222,15.0436281 1.71430222,14.5713378 L1.71430222,9.42843117 C1.71430222,8.95614091 2.09830591,8.57128006 2.57145332,8.57128006 L6.85720886,8.57128006 C6.90435217,8.57128006 6.94463827,8.55242274 6.98835298,8.54470838 C7.04663925,8.53613687 7.10235408,8.53099396 7.1580689,8.51042234 C7.21892663,8.48727926 7.26949854,8.45042176 7.32349906,8.41442141 C7.35692796,8.39213548 7.39549976,8.38184967 7.4263572,8.35527799 L13.7144177,2.76579561 L13.7144177,21.2339734 Z M14.0024205,0.215771068 C14.2552801,-0.00794537069 14.6161407,-0.0628030416 14.9221436,0.0751982867 C15.230718,0.213199615 15.4287199,0.51920256 15.4287199,0.856920097 L15.4287199,0.856920097 L15.4287199,23.1428489 C15.4287199,23.4805664 15.230718,23.7865694 14.9221436,23.9245707 C14.8098568,23.9751426 14.6907128,24 14.5715688,24 C14.3658526,24 14.1618506,23.926285 14.0024205,23.7839979 L14.0024205,23.7839979 L6.53149144,17.1427911 L2.57145332,17.1427911 C1.15372539,17.1427911 7.99360578e-14,15.9890657 7.99360578e-14,14.5713378 L7.99360578e-14,14.5713378 L7.99360578e-14,9.42843117 C7.99360578e-14,8.01070324 1.15372539,6.85697785 2.57145332,6.85697785 L2.57145332,6.85697785 L6.53149144,6.85697785 Z M18.8706959,3.55840324 C19.0121259,3.10668461 19.4904162,2.85211073 19.9447063,2.99525496 C23.908173,4.23040971 26.5713415,7.84930169 26.5713415,11.9996273 C26.5713415,16.1379529 23.9184588,19.7534163 19.9678493,20.9954282 C19.8829914,21.0228571 19.795562,21.0357143 19.7115612,21.0357143 C19.3464148,21.0357143 19.0086973,20.8008549 18.8929819,20.4357085 C18.7506948,19.9839899 19.00184,19.502271 19.4544158,19.3599839 C22.6858755,18.3434027 24.8570393,15.3862314 24.8570393,11.9996273 C24.8570393,8.60359466 22.677304,5.64213758 19.4338442,4.63155643 C18.9821256,4.49098365 18.7301231,4.01097903 18.8706959,3.55840324 Z M18.0001733,7.71421467 C20.3633389,7.71421467 22.2859288,9.63680461 22.2859288,11.9999702 C22.2859288,14.3631358 20.3633389,16.2857257 18.0001733,16.2857257 C17.5261687,16.2857257 17.1430222,15.9017221 17.1430222,15.4285746 C17.1430222,14.9554272 17.5261687,14.5714235 18.0001733,14.5714235 C19.4179012,14.5714235 20.5716266,13.4176981 20.5716266,11.9999702 C20.5716266,10.5822423 19.4179012,9.42851689 18.0001733,9.42851689 C17.5261687,9.42851689 17.1430222,9.04451319 17.1430222,8.57136578 C17.1430222,8.09821837 17.5261687,7.71421467 18.0001733,7.71421467 Z" id="sound-on-black"></path>
                </g>
            </g>
        </g>
    </g>
</svg>