<?xml version="1.0" encoding="UTF-8"?>
<svg width="20px" height="14px" viewBox="0 0 20 14" version="1.1" xmlns="http://www.w3.org/2000/svg" xmlns:xlink="http://www.w3.org/1999/xlink">
    <!-- Generator: Sketch 61.2 (89653) - https://sketch.com -->
    <title>youtube</title>
    <desc>Created with Sketch.</desc>
    <g id="Final" stroke="none" stroke-width="1" fill="none" fill-rule="evenodd">
        <g id="Résonne-HD-final" transform="translate(-373.000000, -5396.000000)" fill="#FFFFFF">
            <g id="content" transform="translate(-32.000000, 0.000000)">
                <g id="footer" transform="translate(32.000000, 5253.000000)">
                    <g id="contact">
                        <g id="RS" transform="translate(250.000000, 132.000000)">
                            <g id="youtube" transform="translate(114.000000, 0.000000)">
                                <path d="M16.6209677,20.5990444 L16.6209677,14.9009556 L21.6290323,17.7501089 L16.6209677,20.5990444 Z M27.7608629,13.1080685 C27.5405081,12.278254 26.8912016,11.6248105 26.0668306,11.4030403 C24.5725766,11 18.5806452,11 18.5806452,11 C18.5806452,11 12.5887137,11 11.0944597,11.4030403 C10.2700887,11.6248105 9.62078226,12.278254 9.40042742,13.1080685 C9,14.6120121 9,17.75 9,17.75 C9,17.75 9,20.887879 9.40042742,22.3919315 C9.62078226,23.221746 10.2700887,23.8751895 11.0944597,24.0970685 C12.5887137,24.5 18.5806452,24.5 18.5806452,24.5 C18.5806452,24.5 24.5725766,24.5 26.0668306,24.0970685 C26.8912016,23.8751895 27.5405081,23.221746 27.7608629,22.3919315 C28.1612903,20.887879 28.1612903,17.75 28.1612903,17.75 C28.1612903,17.75 28.1612903,14.6120121 27.7608629,13.1080685 L27.7608629,13.1080685 Z"></path>
                            </g>
                        </g>
                    </g>
                </g>
            </g>
        </g>
    </g>
</svg>